<svg viewBox="0 0 51 73" fill="none"
  xmlns="http://www.w3.org/2000/svg">
  <path d="M22.804 71.2967C23.8133 73.0508 26.3443 73.0508 27.3537 71.2967L46.7835 37.5312C56.3899 20.8368 44.3398 0 25.0788 0C5.81783 0 -6.2323 20.8368 3.37418 37.5311L22.804 71.2967Z" fill="#444348"/>
  <g clip-path="url(#clip0_170_3239)">
    <path d="M25.3119 36.341L24.2117 36.1806L24.4562 34.1845C27.2502 34.5588 29.3632 34.7459 30.7952 34.7459C33.8162 34.7459 35.3267 33.3023 35.3267 30.4063C35.3267 29.6132 35.187 28.9894 34.9164 28.5349C34.637 28.0805 34.1742 27.7062 33.5106 27.4122C32.847 27.1181 31.8866 26.8508 30.6205 26.6012C28.9441 26.2448 27.6432 25.8438 26.7176 25.3804C25.7921 24.926 25.1111 24.3111 24.6832 23.5359C24.2554 22.7695 24.0371 21.7358 24.0371 20.4437C24.0371 16.5674 26.316 14.6337 30.865 14.6337C32.4367 14.6337 34.5671 14.8387 37.2651 15.2575L37.0468 17.2892C34.1131 16.9328 32.0961 16.7546 31.0135 16.7546C27.9488 16.7546 26.4208 17.9308 26.4208 20.2833C26.4208 21.1833 26.5692 21.8606 26.8661 22.3329C27.1629 22.8051 27.6693 23.1794 28.3853 23.4735C29.1013 23.7675 30.2276 24.0883 31.7818 24.4448C33.2923 24.8012 34.4623 25.1933 35.2831 25.6299C36.1038 26.0666 36.715 26.6458 37.1079 27.3676C37.4921 28.0894 37.6929 29.0429 37.6929 30.228C37.6929 34.6657 35.4402 36.8846 30.9261 36.8846C29.4855 36.8757 27.617 36.6974 25.3119 36.341Z" fill="#FFE168"/>
    <path d="M11.124 37.0361V14.3486H19.9514C22.3263 14.3486 24.1163 14.8565 25.2775 15.8456C26.4563 16.8615 27.05 18.4922 27.05 20.6932C27.05 21.8695 26.8579 22.8675 26.4737 23.6517C26.1769 24.2576 25.7228 24.8101 25.1116 25.3002C25.8014 25.7012 26.3428 26.2448 26.7269 26.9131C27.2159 27.7686 27.4604 28.8914 27.4604 30.2459C27.4604 32.5093 26.8055 34.2291 25.522 35.3608C24.256 36.4747 22.4224 37.0361 20.0824 37.0361H11.124ZM19.8554 32.3667C20.6848 32.3667 21.296 32.2063 21.6628 31.8855C22.012 31.5825 22.1866 31.0211 22.1866 30.2191C22.1866 29.4082 22.012 28.8201 21.6628 28.4726C21.3135 28.125 20.7023 27.9379 19.8641 27.9379H16.3454V32.3667H19.8554ZM19.7593 23.322C21.1476 23.322 21.7763 22.6626 21.7763 21.1744C21.7763 19.6863 21.1476 19.0269 19.7331 19.0269H16.3366V23.3309H19.7593V23.322Z" fill="#FFE168"/>
  </g>
  <defs>
    <clipPath id="clip0_170_3239">
      <rect width="27" height="23" fill="white" transform="translate(11.0781 14.25)"/>
    </clipPath>
  </defs>
</svg>
