<svg viewBox="0 0 145 145" fill="none"
  xmlns="http://www.w3.org/2000/svg">
  <circle opacity="0.1" cx="72.5" cy="72.5" r="72.5" fill="#444348">
    <animate attributeName="r" values="0;32.5;72.5" dur="1s" repeatCount="indefinite"/>
    <animate attributeName="opacity" values="0; 0.1;0.1; 0" dur="1s" repeatCount="indefinite"/>
  </circle>
  <circle opacity="0.4" cx="72.5" cy="72.5" r="32.5" fill="#FFE168">
    <animate attributeName="r" values="0;32.5;40" dur="1s" repeatCount="indefinite"/>
    <animate attributeName="opacity" values="0; 0.4;0" dur="1s" repeatCount="indefinite"/>
  </circle>
  <path d="M70.0264 74.2967C71.0358 76.0508 73.5668 76.0508 74.5761 74.2967L94.0059 40.5312C103.612 23.8368 91.5623 3 72.3013 3V3C53.0403 3 40.9902 23.8368 50.5966 40.5311L70.0264 74.2967Z" fill="#FFE168"/>
  <g clip-path="url(#clip0_433_1139)">
    <path d="M73.5345 39.341L72.4344 39.1806L72.6789 37.1845C75.4729 37.5588 77.5859 37.7459 79.0178 37.7459C82.0389 37.7459 83.5494 36.3023 83.5494 33.4063C83.5494 32.6132 83.4097 31.9894 83.139 31.5349C82.8596 31.0805 82.3969 30.7062 81.7333 30.4122C81.0697 30.1181 80.1092 29.8508 78.8432 29.6012C77.1668 29.2448 75.8658 28.8438 74.9403 28.3804C74.0148 27.926 73.3337 27.3111 72.9059 26.5359C72.478 25.7695 72.2598 24.7358 72.2598 23.4437C72.2598 19.5674 74.5386 17.6337 79.0877 17.6337C80.6593 17.6337 82.7898 17.8387 85.4878 18.2575L85.2695 20.2892C82.3357 19.9328 80.3188 19.7546 79.2361 19.7546C76.1714 19.7546 74.6434 20.9308 74.6434 23.2833C74.6434 24.1833 74.7919 24.8606 75.0887 25.3329C75.3856 25.8051 75.892 26.1794 76.608 26.4735C77.3239 26.7675 78.4503 27.0883 80.0045 27.4448C81.515 27.8012 82.685 28.1933 83.5057 28.6299C84.3265 29.0666 84.9377 29.6458 85.3306 30.3676C85.7148 31.0894 85.9156 32.0429 85.9156 33.228C85.9156 37.6657 83.6629 39.8846 79.1488 39.8846C77.7081 39.8757 75.8396 39.6974 73.5345 39.341Z" fill="#444348"/>
    <path d="M59.3467 40.0361V17.3486H68.1741C70.549 17.3486 72.3389 17.8565 73.5002 18.8456C74.6789 19.8615 75.2726 21.4922 75.2726 23.6932C75.2726 24.8695 75.0806 25.8675 74.6964 26.6517C74.3995 27.2576 73.9455 27.8101 73.3343 28.3002C74.0241 28.7012 74.5654 29.2448 74.9496 29.9131C75.4385 30.7686 75.683 31.8914 75.683 33.2459C75.683 35.5093 75.0282 37.2291 73.7447 38.3608C72.4786 39.4747 70.645 40.0361 68.305 40.0361H59.3467ZM68.078 35.3667C68.9075 35.3667 69.5187 35.2063 69.8854 34.8855C70.2347 34.5825 70.4093 34.0211 70.4093 33.2191C70.4093 32.4082 70.2347 31.8201 69.8854 31.4726C69.5362 31.125 68.925 30.9379 68.0868 30.9379H64.568V35.3667H68.078ZM67.982 26.322C69.3703 26.322 69.9989 25.6626 69.9989 24.1744C69.9989 22.6863 69.3703 22.0269 67.9558 22.0269H64.5593V26.3309H67.982V26.322Z" fill="#444348"/>
  </g>
  <defs>
    <clipPath id="clip0_433_1139">
      <rect width="27" height="23" fill="white" transform="translate(59.3008 17.25)"/>
    </clipPath>
  </defs>
</svg>
