<svg viewBox="0 0 16 16" fill="none" xmlns="http://www.w3.org/2000/svg">
  <path
    d="M14.3679 6.73673L14.3275 6.77204L11.5087 9.23203L11.283 9.42907L11.3503 9.72107L12.1946 13.3836L12.195 13.3849C12.2173 13.4806 12.2109 13.5808 12.1766 13.6729C12.1423 13.7651 12.0816 13.845 12.0021 13.9029C11.9226 13.9607 11.8279 13.9938 11.7296 13.998C11.6316 14.0023 11.5345 13.9776 11.4504 13.927C11.4503 13.9269 11.4501 13.9268 11.45 13.9268L8.25679 11.99L7.99722 11.8325L7.73779 11.9902L4.55191 13.9268C4.55169 13.9269 4.55146 13.927 4.55123 13.9272C4.46719 13.9776 4.37016 14.0023 4.27222 13.998C4.174 13.9938 4.07922 13.9607 3.99972 13.9029C3.92022 13.845 3.85953 13.7651 3.82524 13.6729C3.79095 13.5808 3.78457 13.4806 3.80691 13.3849L3.80723 13.3835L4.65035 9.72478L4.71758 9.43301L4.49213 9.236L1.67276 6.77225L1.67276 6.77224L1.6703 6.77012C1.59574 6.70581 1.54183 6.62092 1.51532 6.5261C1.48881 6.43128 1.49089 6.33074 1.52129 6.23709C1.5517 6.14344 1.60907 6.06085 1.68623 5.99968C1.76338 5.93851 1.85687 5.90149 1.95499 5.89324L1.95627 5.89313L5.67252 5.57126L5.97362 5.54518L6.09048 5.26645L7.54111 1.80645L7.54144 1.80566C7.5792 1.71517 7.64288 1.63787 7.72448 1.5835C7.80608 1.52913 7.90194 1.50012 8 1.50012C8.09805 1.50012 8.19391 1.52913 8.27551 1.5835C8.35711 1.63787 8.4208 1.71517 8.45855 1.80566L8.45909 1.80694L9.91409 5.26694L10.0311 5.5452L10.3318 5.57126L14.0468 5.89313L14.0481 5.89324C14.1462 5.90149 14.2397 5.93852 14.3169 5.99968C14.394 6.06085 14.4514 6.14344 14.4818 6.23709C14.5122 6.33074 14.5143 6.43128 14.4878 6.5261C14.4657 6.60531 14.4244 6.6776 14.3679 6.73673Z"
    stroke="#444348" fill="#444348" />
</svg>