<svg fill="#444348" viewBox="0 0 134 112" xmlns="http://www.w3.org/2000/svg">
  <path d="M70.6433 107.574L65.1833 106.793L66.3966 97.0725C80.2633 98.895 90.75 99.8063 97.8566 99.8063C112.85 99.8063 120.347 92.7766 120.347 78.6739C120.347 74.812 119.653 71.7745 118.31 69.5614C116.923 67.3484 114.627 65.5259 111.333 64.0939C108.04 62.662 103.273 61.3602 96.99 60.1452C88.67 58.4095 82.2133 56.4568 77.62 54.2004C73.0267 51.9873 69.6466 48.9932 67.5233 45.2181C65.4 41.4863 64.3167 36.4527 64.3167 30.1607C64.3167 11.2848 75.6267 1.86859 98.2033 1.86859C106.003 1.86859 116.577 2.86663 129.967 4.90609L128.883 14.7997C114.323 13.0639 104.313 12.1961 98.94 12.1961C83.73 12.1961 76.1466 17.924 76.1466 29.3797C76.1466 33.7623 76.8833 37.0602 78.3566 39.36C79.83 41.6598 82.3433 43.4823 85.8966 44.9143C89.45 46.3463 95.04 47.9084 102.753 49.6441C110.25 51.3798 116.057 53.2891 120.13 55.4154C124.203 57.5416 127.237 60.3622 129.187 63.877C131.093 67.3918 132.09 72.0348 132.09 77.8061C132.09 99.4157 120.91 110.221 98.5066 110.221C91.3566 110.177 82.0833 109.309 70.6433 107.574Z" />
  <path d="M0.226685 110.958V0.47998H44.0367C55.8234 0.47998 64.7067 2.95337 70.47 7.76998C76.32 12.7168 79.2667 20.6577 79.2667 31.3757C79.2667 37.1035 78.3133 41.9636 76.4067 45.7821C74.9333 48.7328 72.68 51.4232 69.6467 53.8098C73.07 55.7625 75.7567 58.4094 77.6633 61.6639C80.09 65.8296 81.3034 71.2971 81.3034 77.8928C81.3034 88.9146 78.0534 97.2894 71.6833 102.8C65.4 108.224 56.3 110.958 44.6867 110.958H0.226685ZM43.56 88.2203C47.6767 88.2203 50.71 87.4393 52.53 85.8771C54.2633 84.4018 55.13 81.668 55.13 77.7627C55.13 73.8139 54.2633 70.95 52.53 69.2577C50.7967 67.5653 47.7634 66.6541 43.6034 66.6541H26.14V88.2203H43.56ZM43.0833 44.1766C49.9734 44.1766 53.0934 40.9655 53.0934 33.7189C53.0934 26.4723 49.9734 23.2612 42.9534 23.2612H26.0967V44.22H43.0833V44.1766Z" />
</svg>
