<svg fill="#444348" viewBox="0 0 465 465"
  xmlns="http://www.w3.org/2000/svg">
  <path class="cls-1" d="M177,385l-12.62-1.75,2.8-22.43q48,6.3,72.56,6.31,51.87,0,51.87-48.72,0-13.32-4.73-21T270.8,284.73q-11.4-4.91-33.13-9.12-28.74-6-44.69-13.67t-23.31-20.68q-7.35-13-7.36-34.7,0-65.19,78.17-65.19,27,0,73.26,7l-2.46,22.78q-50.47-6-69-6-52.57,0-52.58,39.61,0,15.08,5.09,23t17.35,12.79q12.25,4.92,38.9,10.87,25.93,6,40.14,13.32T312,284.2q6.66,12.09,6.66,32.07,0,74.67-77.46,74.66Q216.64,390.93,177,385Z"/>
  <path d="M19.61,143.16h96.05q39.21,0,57.74,15.64t18.52,50.55q0,18.71-6.11,30.94t-20.87,21.58q16.19,6.48,23.92,19.78t7.74,34.9q0,36-20.51,53.6t-59,17.63H19.61ZM113.5,243.88q28.07,0,28.06-29.14t-28.42-29.13H69.25v58.27Zm1.08,101.45q16.19,0,23.92-6.66t7.74-22.48q0-15.82-7.56-23.2t-24.1-7.38H69.25v59.72Z"/>
  <path d="M369.4,141a52.75,52.75,0,0,1-19.89-20.39,59.25,59.25,0,0,1-7.2-29.2,59.23,59.23,0,0,1,7.1-29.09,51.52,51.52,0,0,1,19.79-20.2,56.24,56.24,0,0,1,28.5-7.3A53.89,53.89,0,0,1,426,42.36,52.34,52.34,0,0,1,445.49,63a60.81,60.81,0,0,1,7,29.09,60.29,60.29,0,0,1-6.9,28.9,50.93,50.93,0,0,1-19.2,20.19q-12.3,7.31-28.29,7.3A55.88,55.88,0,0,1,369.4,141Zm49.79-10.6a42.76,42.76,0,0,0,15.3-16.29,48,48,0,0,0,0-45,42.59,42.59,0,0,0-15.4-16.3,42,42,0,0,0-43.59.2,43.26,43.26,0,0,0-15.29,16.5,47.18,47.18,0,0,0,.2,44.59A43,43,0,0,0,376,130.44a41.07,41.07,0,0,0,21.7,6A40.05,40.05,0,0,0,419.19,130.44ZM373.3,60.26h27.2q10.39,0,16.59,5.1t6.2,14.29q0,9.21-1.6,13.6a18.69,18.69,0,0,1-6,8l8.2,22h-20l-5.6-18.6h-5.8v18.6H373.3Zm24.6,30.19q6.8,0,6.8-8,0-7.8-7-7.79h-5.4V90.45Z"/>
</svg>